<svg width="21" height="21" viewBox="0 0 21 21" fill="none" xmlns="http://www.w3.org/2000/svg">
<circle cx="10.5" cy="10.5" r="10.5" fill="#253334"/>
<path d="M4 10.4743C4 10.2008 4.10252 9.93847 4.285 9.74507C4.46748 9.55168 4.71498 9.44303 4.97304 9.44303L12.6795 9.44303L10.1237 6.73428C9.9518 6.53879 9.85823 6.28022 9.86268 6.01306C9.86713 5.7459 9.96925 5.49099 10.1475 5.30205C10.3258 5.1131 10.5663 5.00487 10.8184 5.00016C11.0705 4.99545 11.3145 5.09462 11.4989 5.27678L15.7154 9.74553C15.8976 9.93889 16 10.201 16 10.4743C16 10.7476 15.8976 11.0097 15.7154 11.203L11.4989 15.6718C11.4098 15.7731 11.3024 15.8544 11.183 15.9107C11.0637 15.9671 10.9348 15.9974 10.8042 15.9998C10.6735 16.0023 10.5438 15.9768 10.4226 15.9249C10.3014 15.8731 10.1914 15.7959 10.099 15.698C10.0066 15.6 9.93374 15.4834 9.8848 15.355C9.83586 15.2266 9.81183 15.089 9.81413 14.9506C9.81644 14.8121 9.84504 14.6755 9.89822 14.549C9.9514 14.4225 10.0281 14.3087 10.1237 14.2143L12.6795 11.5055L4.97304 11.5055C4.71498 11.5055 4.46748 11.3969 4.285 11.2035C4.10252 11.0101 4 10.7478 4 10.4743Z" fill="#F7F3F0"/>
</svg>
